<?xml version="1.0" standalone="no"?>
<!DOCTYPE svg PUBLIC "-//W3C//DTD SVG 20010904//EN"
 "http://www.w3.org/TR/2001/REC-SVG-20010904/DTD/svg10.dtd">
<svg version="1.0" xmlns="http://www.w3.org/2000/svg"
 width="804.000000pt" height="804.000000pt" viewBox="0 0 804.000000 804.000000"
 preserveAspectRatio="xMidYMid meet">
<metadata>
Created by potrace 1.14, written by Peter Selinger 2001-2017
</metadata>
<g transform="translate(0.000000,804.000000) scale(0.100000,-0.100000)"
fill="#000000" stroke="none">
<path d="M520 4020 l0 -4020 3500 0 3500 0 0 4020 0 4020 -3500 0 -3500 0 0
-4020z m2710 3450 c0 -5 -4 -10 -10 -10 -5 0 -10 5 -10 10 0 6 5 10 10 10 6 0
10 -4 10 -10z m1500 -40 c0 -5 -5 -10 -11 -10 -5 0 -7 5 -4 10 3 6 8 10 11 10
2 0 4 -4 4 -10z m-1450 -65 c0 -8 -4 -15 -10 -15 -5 0 -10 7 -10 15 0 8 5 15
10 15 6 0 10 -7 10 -15z m1420 -36 c0 -5 -4 -9 -10 -9 -5 0 -10 7 -10 16 0 8
5 12 10 9 6 -3 10 -10 10 -16z m-760 -59 c0 -5 -7 -10 -15 -10 -8 0 -15 5 -15
10 0 6 7 10 15 10 8 0 15 -4 15 -10z m-620 -10 c0 -5 -4 -10 -10 -10 -5 0 -10
5 -10 10 0 6 5 10 10 10 6 0 10 -4 10 -10z m-413 -15 c2 -6 -3 -20 -11 -30
-19 -26 -41 -7 -31 25 7 21 35 25 42 5z m453 -45 c0 -5 -4 -10 -10 -10 -5 0
-10 5 -10 10 0 6 5 10 10 10 6 0 10 -4 10 -10z m1300 -10 c0 -5 -4 -10 -10
-10 -5 0 -10 5 -10 10 0 6 5 10 10 10 6 0 10 -4 10 -10z m-730 -10 c0 -5 -2
-10 -4 -10 -3 0 -8 5 -11 10 -3 6 -1 10 4 10 6 0 11 -4 11 -10z m710 -30 c0
-11 -4 -20 -10 -20 -5 0 -10 9 -10 20 0 11 5 20 10 20 6 0 10 -9 10 -20z
m-700 1 c0 -6 -4 -13 -10 -16 -5 -3 -10 1 -10 9 0 9 5 16 10 16 6 0 10 -4 10
-9z m-570 -21 c0 -5 -4 -10 -9 -10 -6 0 -13 5 -16 10 -3 6 1 10 9 10 9 0 16
-4 16 -10z m-555 -40 c3 -5 -1 -10 -10 -10 -9 0 -13 5 -10 10 3 6 8 10 10 10
2 0 7 -4 10 -10z m1079 -11 c-3 -5 -10 -7 -15 -3 -5 3 -7 10 -3 15 3 5 10 7
15 3 5 -3 7 -10 3 -15z m81 1 c3 -5 1 -10 -4 -10 -6 0 -11 5 -11 10 0 6 2 10
4 10 3 0 8 -4 11 -10z m639 -23 c-3 -9 -12 -17 -20 -17 -17 0 -17 5 -3 32 13
24 33 10 23 -15z m961 -127 c20 -39 64 -68 116 -76 61 -9 84 -23 39 -24 -42
-1 -108 -29 -133 -58 -26 -29 -46 -89 -47 -139 0 -66 -17 -51 -22 21 -9 111
-72 175 -173 176 -30 0 -36 3 -25 10 8 5 28 10 43 10 88 0 154 73 156 172 2
72 15 75 23 5 5 -37 15 -81 23 -97z m-1595 74 c0 -9 -5 -14 -12 -12 -18 6 -21
28 -4 28 9 0 16 -7 16 -16z m-572 -15 c17 -27 5 -40 -14 -15 -8 11 -14 23 -14
28 0 15 15 8 28 -13z m1176 5 c8 -22 8 -24 -8 -24 -9 0 -14 9 -13 20 2 24 13
26 21 4z m-606 -59 c-3 -16 2 -32 15 -46 l20 -21 -24 7 c-13 4 -25 8 -26 9 -2
1 -5 59 -4 69 1 4 6 7 12 7 7 0 9 -10 7 -25z m582 -15 c0 -5 -10 -10 -22 -10
-19 0 -20 2 -8 10 19 13 30 13 30 0z m-1100 -30 c0 -5 -4 -10 -9 -10 -6 0 -13
5 -16 10 -3 6 1 10 9 10 9 0 16 -4 16 -10z m1060 -10 c0 -5 -5 -10 -11 -10 -5
0 -7 5 -4 10 3 6 8 10 11 10 2 0 4 -4 4 -10z m40 -10 c0 -5 -7 -10 -15 -10 -8
0 -15 5 -15 10 0 6 7 10 15 10 8 0 15 -4 15 -10z m470 -10 c0 -5 -2 -10 -4
-10 -3 0 -8 5 -11 10 -3 6 -1 10 4 10 6 0 11 -4 11 -10z m-2350 -10 c0 -5 -4
-10 -10 -10 -5 0 -10 5 -10 10 0 6 5 10 10 10 6 0 10 -4 10 -10z m1830 -21 c0
-5 -6 -9 -14 -9 -8 0 -16 -6 -19 -12 -2 -7 -7 -10 -11 -6 -10 8 25 49 36 42 4
-3 8 -9 8 -15z m-1062 0 c-2 -6 -8 -10 -13 -10 -5 0 -11 4 -13 10 -2 6 4 11
13 11 9 0 15 -5 13 -11z m-718 -19 c0 -5 -4 -10 -10 -10 -5 0 -10 5 -10 10 0
6 5 10 10 10 6 0 10 -4 10 -10z m700 -24 c0 -3 -4 -8 -10 -11 -5 -3 -10 -1
-10 4 0 6 5 11 10 11 6 0 10 -2 10 -4z m90 -11 c0 -8 -7 -15 -15 -15 -9 0 -12
6 -9 15 4 8 10 15 15 15 5 0 9 -7 9 -15z m959 -14 c-15 -5 -22 6 -14 19 6 9
10 9 16 -1 5 -8 4 -15 -2 -18z m-441 -59 c17 -42 32 -83 32 -90 0 -8 -17 -12
-54 -12 -29 0 -68 -3 -86 -7 -32 -6 -33 -5 -26 23 13 55 77 164 95 164 3 0 21
-35 39 -78z m-1258 58 c0 -5 -4 -10 -10 -10 -5 0 -10 5 -10 10 0 6 5 10 10 10
6 0 10 -4 10 -10z m1680 -20 c0 -5 -4 -10 -10 -10 -5 0 -10 5 -10 10 0 6 5 10
10 10 6 0 10 -4 10 -10z m50 -11 c0 -5 -4 -9 -10 -9 -5 0 -10 7 -10 16 0 8 5
12 10 9 6 -3 10 -10 10 -16z m-983 -35 c-9 -9 -28 6 -21 18 4 6 10 6 17 -1 6
-6 8 -13 4 -17z m-47 -4 c0 -5 -7 -10 -15 -10 -8 0 -15 5 -15 10 0 6 7 10 15
10 8 0 15 -4 15 -10z m-620 -10 c0 -5 -4 -10 -10 -10 -5 0 -10 5 -10 10 0 6 5
10 10 10 6 0 10 -4 10 -10z m730 -6 c0 -8 -4 -12 -10 -9 -5 3 -10 10 -10 16 0
5 5 9 10 9 6 0 10 -7 10 -16z m830 -10 c0 -8 -4 -12 -10 -9 -5 3 -10 10 -10
16 0 5 5 9 10 9 6 0 10 -7 10 -16z m50 -4 c0 -5 -4 -10 -10 -10 -5 0 -10 5
-10 10 0 6 5 10 10 10 6 0 10 -4 10 -10z m-120 -20 c0 -5 -4 -10 -10 -10 -5 0
-10 5 -10 10 0 6 5 10 10 10 6 0 10 -4 10 -10z m-760 -4 c0 -11 -19 -15 -25
-6 -3 5 1 10 9 10 9 0 16 -2 16 -4z m875 -36 c-5 -8 -11 -8 -17 -2 -6 6 -7 16
-3 22 5 8 11 8 17 2 6 -6 7 -16 3 -22z m-1525 10 c0 -5 -4 -10 -10 -10 -5 0
-10 5 -10 10 0 6 5 10 10 10 6 0 10 -4 10 -10z m1375 0 c3 -5 1 -10 -4 -10 -6
0 -11 5 -11 10 0 6 2 10 4 10 3 0 8 -4 11 -10z m105 0 c0 -5 -4 -10 -10 -10
-5 0 -10 5 -10 10 0 6 5 10 10 10 6 0 10 -4 10 -10z m-890 -21 c0 -5 -7 -9
-15 -9 -15 0 -20 12 -9 23 8 8 24 -1 24 -14z m846 -7 c-7 -11 -46 -4 -46 8 0
12 33 18 44 9 4 -4 5 -12 2 -17z m-1377 9 c11 -7 9 -10 -8 -16 -25 -8 -36 -2
-26 14 8 13 15 14 34 2z m481 -5 c0 -3 -4 -8 -10 -11 -5 -3 -10 -1 -10 4 0 6
5 11 10 11 6 0 10 -2 10 -4z m110 -6 c0 -5 -7 -10 -15 -10 -8 0 -15 5 -15 10
0 6 7 10 15 10 8 0 15 -4 15 -10z m50 0 c0 -5 -7 -10 -15 -10 -8 0 -15 5 -15
10 0 6 7 10 15 10 8 0 15 -4 15 -10z m611 -11 c46 -5 93 -14 104 -19 11 -4 49
-16 85 -25 256 -65 520 -241 686 -456 25 -33 44 -62 41 -65 -2 -2 -36 20 -76
51 -39 30 -74 55 -77 55 -6 0 -61 38 -94 65 -30 26 -173 107 -215 123 -165 62
-495 106 -624 84 -176 -30 -314 -104 -431 -229 -195 -209 -270 -328 -310 -493
-26 -110 -37 -220 -21 -220 16 0 14 -16 -5 -35 -21 -21 -33 -135 -29 -276 4
-116 29 -223 72 -297 31 -54 24 -67 -8 -15 -13 21 -27 41 -32 44 -5 4 -6 12
-2 18 4 7 -2 20 -14 30 -12 10 -21 27 -22 37 0 11 -3 13 -6 7 -9 -24 -25 -13
-19 13 5 17 3 23 -4 19 -13 -8 -40 22 -86 98 -20 31 -42 57 -50 57 -9 0 -12 5
-9 10 3 6 -3 10 -14 10 -11 0 -36 9 -55 21 -36 21 -56 19 -56 -6 0 -7 -11 -16
-25 -19 -13 -3 -33 -16 -44 -27 -12 -13 -21 -17 -26 -10 -12 20 -23 12 -35
-25 -10 -30 -9 -38 5 -54 11 -12 13 -20 6 -25 -18 -11 -12 -35 9 -35 13 0 20
-7 20 -20 0 -14 -7 -20 -21 -20 -20 0 -21 -4 -15 -51 6 -46 5 -51 -10 -45 -13
5 -15 2 -9 -16 16 -53 18 -71 6 -64 -16 11 -14 1 18 -67 37 -81 47 -112 32
-103 -6 4 -11 13 -11 20 0 8 -6 19 -13 25 -8 6 -20 29 -27 51 -13 40 -39 56
-36 23 1 -16 -11 -18 -107 -19 -59 0 -110 2 -112 6 -4 7 97 146 127 174 25 23
33 15 55 -58 10 -33 24 -61 31 -64 8 -2 3 20 -13 65 -29 75 -38 114 -61 283
-14 96 -15 137 -6 250 16 196 45 306 119 455 42 84 61 155 42 155 -5 0 -9 7
-9 15 0 17 16 20 25 5 14 -22 34 -7 84 65 29 41 91 113 139 160 47 47 83 85
79 85 -4 0 -24 -16 -44 -35 -21 -19 -42 -34 -48 -32 -5 2 -13 30 -17 62 -4 33
-14 80 -22 105 -21 64 -29 110 -20 110 4 0 35 -13 68 -28 34 -16 85 -39 114
-52 71 -32 81 -45 51 -70 -13 -10 -18 -19 -11 -20 6 0 12 3 12 8 0 15 207 121
308 156 216 77 446 103 663 75z m227 5 c29 -8 28 -24 -2 -24 -31 0 -56 10 -56
21 0 10 25 11 58 3z m-2645 -16 c-41 -14 -42 -24 -1 -32 17 -3 29 -8 27 -10
-6 -6 -109 17 -109 24 0 3 19 11 43 17 55 13 81 14 40 1z m1180 -28 c-6 -22
-7 -22 -13 -4 -9 23 -1 49 11 37 5 -5 5 -19 2 -33z m110 31 c17 -6 16 -8 -8
-19 -29 -13 -45 -9 -45 14 0 15 23 17 53 5z m497 -5 c0 -3 -4 -8 -10 -11 -5
-3 -10 -1 -10 4 0 6 5 11 10 11 6 0 10 -2 10 -4z m-1510 -16 c12 -8 9 -10 -12
-10 -16 0 -28 5 -28 10 0 13 20 13 40 0z m1450 0 c0 -5 -7 -10 -15 -10 -8 0
-15 5 -15 10 0 6 7 10 15 10 8 0 15 -4 15 -10z m-889 -33 c-13 -13 -26 -3 -16
12 3 6 11 8 17 5 6 -4 6 -10 -1 -17z m844 14 c10 -18 -15 -22 -37 -7 l-22 16
26 0 c15 0 29 -4 33 -9z m-1605 -69 c0 -15 -2 -15 -10 -2 -13 20 -13 33 0 25
6 -3 10 -14 10 -23z m4057 -34 c-3 -8 -6 -5 -6 6 -1 11 2 17 5 13 3 -3 4 -12
1 -19z m-1577 -68 c0 -5 -2 -10 -4 -10 -3 0 -8 5 -11 10 -3 6 -1 10 4 10 6 0
11 -4 11 -10z m-490 -84 c0 -3 -4 -8 -10 -11 -5 -3 -10 -1 -10 4 0 6 5 11 10
11 6 0 10 -2 10 -4z m-1183 -112 c-3 -3 -12 -4 -19 -1 -8 3 -5 6 6 6 11 1 17
-2 13 -5z m1637 -3 c9 -14 -4 -41 -19 -41 -15 0 -28 27 -19 41 3 5 11 9 19 9
8 0 16 -4 19 -9z m-1599 -31 c3 -5 1 -10 -4 -10 -6 0 -11 5 -11 10 0 6 2 10 4
10 3 0 8 -4 11 -10z m35 0 c0 -5 -4 -10 -10 -10 -5 0 -10 5 -10 10 0 6 5 10
10 10 6 0 10 -4 10 -10z m130 -21 c0 -5 -7 -9 -15 -9 -15 0 -20 12 -9 23 8 8
24 -1 24 -14z m34 -11 c-8 -28 -4 -24 -31 -32 -13 -4 -23 -3 -23 3 0 5 9 13
20 16 11 3 20 13 20 21 0 8 5 14 11 14 6 0 8 -9 3 -22z m-164 -18 c0 -5 -2
-10 -4 -10 -3 0 -8 5 -11 10 -3 6 -1 10 4 10 6 0 11 -4 11 -10z m85 -20 c-5
-8 -11 -8 -17 -2 -6 6 -7 16 -3 22 5 8 11 8 17 2 6 -6 7 -16 3 -22z m-35 0 c0
-5 -7 -10 -15 -10 -8 0 -15 5 -15 10 0 6 7 10 15 10 8 0 15 -4 15 -10z m2150
-14 c0 -3 -4 -8 -10 -11 -5 -3 -10 -1 -10 4 0 6 5 11 10 11 6 0 10 -2 10 -4z
m-2120 -16 c0 -5 -4 -10 -10 -10 -5 0 -10 5 -10 10 0 6 5 10 10 10 6 0 10 -4
10 -10z m40 0 c0 -5 -4 -10 -10 -10 -5 0 -10 5 -10 10 0 6 5 10 10 10 6 0 10
-4 10 -10z m-385 -14 c10 -10 11 -16 2 -25 -25 -25 -59 -2 -37 24 15 18 18 18
35 1z m315 -1 c0 -8 -7 -15 -15 -15 -8 0 -15 7 -15 15 0 8 7 15 15 15 8 0 15
-7 15 -15z m25 -55 c3 -5 -1 -10 -9 -10 -9 0 -16 5 -16 10 0 6 4 10 9 10 6 0
13 -4 16 -10z m-1918 -62 c-3 -7 -5 -2 -5 12 0 14 2 19 5 13 2 -7 2 -19 0 -25z
m3933 -12 c0 -3 -4 -8 -10 -11 -5 -3 -10 -1 -10 4 0 6 5 11 10 11 6 0 10 -2
10 -4z m-62 -33 c5 -17 -26 -29 -40 -15 -6 6 -7 15 -3 22 9 14 37 9 43 -7z
m-2583 -13 c3 -5 1 -10 -4 -10 -6 0 -11 5 -11 10 0 6 2 10 4 10 3 0 8 -4 11
-10z m2445 -20 c0 -5 -7 -10 -16 -10 -8 0 -12 5 -9 10 3 6 10 10 16 10 5 0 9
-4 9 -10z m-2360 -20 c0 -5 -5 -10 -11 -10 -5 0 -7 5 -4 10 3 6 8 10 11 10 2
0 4 -4 4 -10z m149 -45 c-11 -11 -59 -15 -59 -4 0 10 14 14 45 14 16 0 21 -3
14 -10z m-1389 -15 c0 -5 -6 -10 -14 -10 -8 0 -18 5 -21 10 -3 6 3 10 14 10
12 0 21 -4 21 -10z m-243 -6 c-3 -3 -12 -4 -19 -1 -8 3 -5 6 6 6 11 1 17 -2
13 -5z m-54 -11 c-7 -2 -21 -2 -30 0 -10 3 -4 5 12 5 17 0 24 -2 18 -5z m350
0 c-7 -2 -19 -2 -25 0 -7 3 -2 5 12 5 14 0 19 -2 13 -5z m2625 -11 c2 -7 -3
-12 -12 -12 -9 0 -16 7 -16 16 0 17 22 14 28 -4z m-998 -11 c0 -10 -9 -47 -20
-81 -11 -34 -20 -69 -20 -76 0 -23 -9 -17 -67 43 l-55 56 23 18 24 19 -22 0
c-14 0 -23 -6 -23 -15 0 -20 -7 -19 -32 5 l-22 20 54 0 c71 0 59 10 -13 11
-32 1 -57 6 -57 10 0 5 52 9 115 9 106 0 115 -2 115 -19z m4164 3 c3 -8 2 -12
-4 -9 -6 3 -10 10 -10 16 0 14 7 11 14 -7z m-5996 -69 c-3 -3 -9 2 -12 12 -6
14 -5 15 5 6 7 -7 10 -15 7 -18z m3582 17 c0 -13 -12 -22 -22 -16 -10 6 -1 24
13 24 5 0 9 -4 9 -8z m2257 2 c-3 -3 -12 -4 -19 -1 -8 3 -5 6 6 6 11 1 17 -2
13 -5z m156 -49 c-3 -9 -8 -14 -10 -11 -3 3 -2 9 2 15 9 16 15 13 8 -4z
m-5976 -72 c-3 -10 -5 -4 -5 12 0 17 2 24 5 18 2 -7 2 -21 0 -30z m1390 22 c2
-6 -3 -20 -11 -30 -14 -19 -16 -19 -32 -3 -22 22 -11 50 18 46 12 -2 23 -8 25
-13z m333 -197 c0 -6 -7 -5 -15 2 -8 7 -15 17 -15 22 0 6 7 5 15 -2 8 -7 15
-17 15 -22z m1428 11 c-2 -6 -8 -10 -13 -10 -5 0 -11 4 -13 10 -2 6 4 11 13
11 9 0 15 -5 13 -11z m867 -9 c-3 -5 -10 -10 -16 -10 -5 0 -9 5 -9 10 0 6 7
10 16 10 8 0 12 -4 9 -10z m-2335 -31 c0 -5 -7 -9 -15 -9 -15 0 -20 12 -9 23
8 8 24 -1 24 -14z m-55 -9 c3 -5 1 -10 -4 -10 -6 0 -11 5 -11 10 0 6 2 10 4
10 3 0 8 -4 11 -10z m95 -27 c0 -22 -2 -25 -10 -13 -13 20 -13 40 0 40 6 0 10
-12 10 -27z m-60 2 c0 -8 -4 -15 -10 -15 -5 0 -10 7 -10 15 0 8 5 15 10 15 6
0 10 -7 10 -15z m-53 -21 c-9 -9 -28 6 -21 18 4 6 10 6 17 -1 6 -6 8 -13 4
-17z m3805 -144 c32 -75 75 -101 203 -122 11 -2 -12 -9 -52 -17 -61 -11 -77
-18 -111 -52 -43 -41 -62 -97 -62 -182 -1 -58 -16 -28 -23 44 -11 115 -63 170
-179 191 l-63 12 60 10 c98 18 136 46 166 127 11 27 19 67 19 88 0 75 15 79
21 6 4 -38 13 -86 21 -105z m-3727 150 c3 -5 1 -10 -4 -10 -6 0 -11 5 -11 10
0 6 2 10 4 10 3 0 8 -4 11 -10z m-25 -46 c0 -3 -7 -1 -15 6 -8 7 -15 17 -15
22 0 5 7 3 15 -6 8 -8 15 -18 15 -22z m70 16 c-19 -12 -30 -12 -30 -1 0 10 31
20 40 14 2 -2 -2 -8 -10 -13z m-177 -10 c-3 -11 -7 -20 -8 -20 -1 0 -5 9 -8
20 -3 12 0 20 8 20 8 0 11 -8 8 -20z m-61 -2 c-9 -9 -15 -9 -24 0 -9 9 -7 12
12 12 19 0 21 -3 12 -12z m118 -3 c0 -8 -4 -15 -10 -15 -5 0 -10 7 -10 15 0 8
5 15 10 15 6 0 10 -7 10 -15z m-180 1 c0 -3 -4 -8 -10 -11 -5 -3 -10 -1 -10 4
0 6 5 11 10 11 6 0 10 -2 10 -4z m-153 -12 c-3 -3 -12 -4 -19 -1 -8 3 -5 6 6
6 11 1 17 -2 13 -5z m408 -4 c3 -5 1 -10 -4 -10 -6 0 -11 5 -11 10 0 6 2 10 4
10 3 0 8 -4 11 -10z m3179 -31 c-3 -5 -10 -7 -15 -3 -5 3 -7 10 -3 15 3 5 10
7 15 3 5 -3 7 -10 3 -15z m-3354 -54 c0 -7 -6 -18 -14 -24 -12 -10 -17 -8 -26
9 -15 28 5 57 26 39 8 -6 14 -17 14 -24z m635 -3 c-3 -3 -15 -6 -27 -7 -20 -2
-20 -1 -3 11 17 13 43 9 30 -4z m1025 -7 c0 -8 -7 -15 -15 -15 -8 0 -15 7 -15
15 0 8 7 15 15 15 8 0 15 -7 15 -15z m-2479 -42 c13 -16 12 -17 -3 -4 -10 7
-18 15 -18 17 0 8 8 3 21 -13z m184 -63 c28 -7 28 -8 -12 -9 -23 0 -48 -4 -57
-7 -11 -4 -16 -1 -16 10 0 17 31 20 85 6z m855 0 c0 -5 -9 -10 -21 -10 -11 0
-17 5 -14 10 3 6 13 10 21 10 8 0 14 -4 14 -10z m1489 -42 c-6 -11 -18 -18
-27 -16 -21 4 -28 34 -11 54 10 13 14 12 30 -2 14 -13 16 -21 8 -36z m1196 42
c3 -5 -1 -10 -10 -10 -9 0 -13 5 -10 10 3 6 8 10 10 10 2 0 7 -4 10 -10z
m-4038 -6 c-3 -3 -12 -4 -19 -1 -8 3 -5 6 6 6 11 1 17 -2 13 -5z m2433 -45 c0
-5 -7 -9 -15 -9 -15 0 -20 12 -9 23 8 8 24 -1 24 -14z m1574 -153 c-51 -142
-142 -298 -231 -399 -18 -20 -33 -44 -33 -52 0 -12 5 -12 36 1 51 21 69 2 20
-21 -20 -10 -36 -21 -36 -27 0 -5 23 -66 51 -136 64 -158 99 -284 106 -384 4
-47 10 -78 17 -78 12 0 82 44 129 80 15 12 39 41 53 66 19 32 32 44 49 44 24
0 43 -15 26 -22 -13 -5 18 -98 33 -98 7 0 39 10 72 21 78 28 356 38 449 16
l60 -14 -1 -104 c-2 -139 -26 -250 -86 -394 -59 -142 -84 -187 -143 -260 -32
-38 -40 -55 -30 -59 7 -2 76 -8 152 -12 135 -7 179 -16 168 -34 -3 -6 -10 -33
-15 -62 -5 -29 -12 -64 -16 -77 l-7 -25 29 21 c94 66 203 101 349 110 83 5
114 2 183 -15 45 -12 86 -24 91 -27 13 -7 -51 -204 -87 -267 -16 -29 -35 -71
-42 -93 -15 -52 -50 -122 -67 -136 -7 -6 -13 -16 -13 -21 0 -13 -99 -160 -167
-248 -86 -110 -166 -166 -331 -230 -124 -48 -150 -54 -267 -66 -146 -15 -293
-16 -375 -5 -30 5 -56 7 -58 6 -2 -2 10 -22 27 -45 45 -62 118 -260 140 -380
20 -103 51 -350 51 -401 0 -14 -6 -33 -13 -43 -12 -17 -20 -16 -152 8 -158 30
-217 43 -260 61 -16 7 -59 23 -95 35 -36 12 -91 35 -122 51 l-57 28 -6 -67
c-8 -95 -32 -192 -75 -310 -41 -112 -80 -172 -111 -172 -32 0 -116 47 -218
123 -102 77 -123 96 -146 140 -9 15 -19 27 -24 27 -4 0 -25 -26 -46 -57 -21
-32 -68 -89 -104 -128 -36 -38 -81 -89 -99 -113 -60 -75 -94 -56 -256 148
-129 162 -171 213 -224 274 -29 34 -74 103 -100 155 -41 82 -47 101 -47 157 0
35 -3 64 -8 64 -4 0 -26 -17 -50 -39 -51 -47 -159 -121 -241 -166 -91 -49
-327 -130 -451 -155 -145 -29 -218 -45 -285 -65 -66 -20 -340 -17 -377 3 -31
17 -37 63 -29 206 18 327 129 557 371 769 44 39 82 74 83 79 2 4 -20 8 -48 8
-99 0 -386 86 -524 157 -98 50 -216 145 -410 330 -145 139 -210 218 -240 293
-10 25 -24 60 -32 78 -26 60 -14 67 153 81 82 8 257 14 389 15 243 1 318 -7
479 -50 27 -7 51 -11 54 -8 3 2 -7 29 -22 60 -52 105 -71 351 -42 534 31 188
69 292 149 402 64 89 67 89 188 4 56 -41 112 -83 122 -95 11 -11 30 -21 43
-21 14 0 23 -6 23 -16 0 -15 31 -58 96 -132 l31 -36 22 48 c11 27 21 62 21 78
0 104 97 337 180 431 38 43 40 46 15 37 -15 -6 -30 -8 -35 -5 -5 3 -10 0 -12
-6 -4 -12 -112 -18 -124 -7 -3 4 1 29 11 55 9 26 22 74 29 106 l11 59 82 -81
c70 -68 103 -94 103 -78 0 2 -49 53 -110 115 -110 112 -165 186 -121 162 12
-6 21 -15 21 -20 0 -16 61 -80 76 -80 8 0 14 -6 14 -14 0 -27 41 -67 64 -61
11 2 16 2 9 -1 -18 -8 -4 -34 19 -34 18 0 19 2 7 17 -11 13 -11 17 -1 20 6 3
12 9 12 15 0 6 -6 8 -14 5 -8 -3 -20 1 -26 9 -10 11 -9 14 7 14 10 0 24 -5 31
-12 9 -9 15 -9 24 0 17 17 43 -5 27 -24 -7 -9 -8 -14 -1 -14 6 0 12 4 14 9 2
4 14 12 28 16 22 7 23 6 11 -9 -7 -9 -10 -16 -6 -16 11 0 117 80 131 99 6 8
18 12 28 8 10 -4 15 -3 11 3 -3 6 1 13 10 17 10 3 21 0 25 -7 4 -7 13 -9 19
-6 16 11 13 46 -4 46 -20 0 -20 46 0 54 9 3 18 -1 20 -9 3 -8 7 -22 10 -30 2
-9 16 -15 33 -15 15 0 33 -5 40 -12 6 -6 14 -9 17 -6 3 3 -31 43 -75 89 -45
46 -94 107 -111 134 l-30 50 32 -37 c17 -21 40 -38 51 -38 13 0 18 -6 16 -19
-5 -29 142 -165 192 -178 14 -3 31 -13 38 -22 8 -9 11 -10 7 -3 -3 7 3 24 15
39 16 20 18 28 8 35 -7 4 -8 8 -3 8 15 0 65 -56 65 -72 0 -8 -5 -19 -10 -24
-13 -13 -3 -21 55 -52 102 -53 511 -125 611 -106 22 4 65 26 99 51 33 25 89
60 125 78 84 42 236 95 273 95 54 0 233 169 322 303 27 41 53 73 56 71 4 -2
-4 -33 -17 -68z m306 54 c0 -5 -4 -10 -10 -10 -5 0 -10 5 -10 10 0 6 5 10 10
10 6 0 10 -4 10 -10z m-1158 -32 c-9 -9 -15 -9 -24 0 -9 9 -7 12 12 12 19 0
21 -3 12 -12z m-455 -40 c-3 -8 -6 -5 -6 6 -1 11 2 17 5 13 3 -3 4 -12 1 -19z
m291 1 c-2 -6 -8 -10 -13 -10 -5 0 -11 4 -13 10 -2 6 4 11 13 11 9 0 15 -5 13
-11z m392 -9 c0 -14 -20 -22 -37 -16 -12 5 -13 9 -3 21 11 14 40 10 40 -5z
m-775 0 c3 -5 1 -10 -4 -10 -6 0 -11 5 -11 10 0 6 2 10 4 10 3 0 8 -4 11 -10z
m-1385 -62 c0 -16 -3 -19 -11 -11 -6 6 -8 16 -5 22 11 17 16 13 16 -11z m-30
-44 c0 -8 -5 -12 -10 -9 -6 4 -8 11 -5 16 9 14 15 11 15 -7z m-42 -23 c3 -8
-1 -12 -9 -9 -7 2 -15 10 -17 17 -3 8 1 12 9 9 7 -2 15 -10 17 -17z m-43 -11
c-3 -5 -10 -10 -16 -10 -5 0 -9 5 -9 10 0 6 7 10 16 10 8 0 12 -4 9 -10z m-45
-20 c0 -5 -2 -10 -4 -10 -3 0 -8 5 -11 10 -3 6 -1 10 4 10 6 0 11 -4 11 -10z
m-50 -10 c0 -5 -4 -10 -10 -10 -5 0 -10 5 -10 10 0 6 5 10 10 10 6 0 10 -4 10
-10z m506 -17 c-10 -10 -19 5 -10 18 6 11 8 11 12 0 2 -7 1 -15 -2 -18z m1365
-26 c-8 -8 -11 -3 -11 19 1 25 2 27 11 11 8 -14 8 -22 0 -30z m-2011 3 c0 -5
-2 -10 -4 -10 -3 0 -8 5 -11 10 -3 6 -1 10 4 10 6 0 11 -4 11 -10z m620 0 c0
-5 -5 -10 -11 -10 -5 0 -7 5 -4 10 3 6 8 10 11 10 2 0 4 -4 4 -10z m110 -25
c0 -5 -5 -3 -10 5 -5 8 -10 20 -10 25 0 6 5 3 10 -5 5 -8 10 -19 10 -25z
m2416 -31 c41 -31 74 -58 74 -60 0 -9 -131 -1 -136 7 -3 5 -26 9 -50 9 -25 0
-44 3 -42 8 17 38 56 92 66 92 8 0 47 -25 88 -56z m-2492 24 c-3 -13 -11 -25
-16 -26 -18 -8 -38 -34 -38 -52 0 -10 -5 -22 -11 -26 -8 -4 -9 3 -4 24 3 17 2
40 -4 51 -13 23 4 40 21 23 13 -13 38 -4 38 14 0 8 5 14 11 14 6 0 8 -9 3 -22z
m46 -23 c0 -8 -4 -15 -10 -15 -5 0 -10 7 -10 15 0 8 5 15 10 15 6 0 10 -7 10
-15z m-140 -15 c0 -5 -2 -10 -4 -10 -3 0 -8 5 -11 10 -3 6 -1 10 4 10 6 0 11
-4 11 -10z m100 -30 c0 -5 -7 -10 -16 -10 -8 0 -12 5 -9 10 3 6 10 10 16 10 5
0 9 -4 9 -10z m60 -5 c0 -8 -4 -15 -10 -15 -5 0 -10 7 -10 15 0 8 5 15 10 15
6 0 10 -7 10 -15z m1230 -4 c0 -22 -15 -35 -30 -26 -7 4 -7 13 0 26 14 25 30
25 30 0z m-1400 -1 c0 -5 -4 -10 -9 -10 -6 0 -13 5 -16 10 -3 6 1 10 9 10 9 0
16 -4 16 -10z m1101 -23 c-10 -9 -11 -8 -5 6 3 10 9 15 12 12 3 -3 0 -11 -7
-18z m-1106 -18 c-29 -11 -35 -10 -35 5 0 9 8 12 27 8 25 -5 25 -6 8 -13z
m-105 -21 c0 -5 9 -8 20 -8 26 0 26 -20 0 -27 -10 -3 -22 -14 -25 -24 -8 -25
-23 -24 -46 4 -23 27 -23 37 -4 65 14 18 19 20 35 9 11 -6 20 -15 20 -19z
m1322 17 c0 -5 -5 -11 -11 -13 -6 -2 -11 4 -11 13 0 9 5 15 11 13 6 -2 11 -8
11 -13z m1568 -4 c0 -12 -20 -25 -27 -18 -7 7 6 27 18 27 5 0 9 -4 9 -9z
m-257 -26 c1 -5 -6 -11 -15 -13 -11 -2 -18 3 -18 13 0 17 30 18 33 0z m307 -5
c0 -5 -4 -10 -10 -10 -5 0 -10 5 -10 10 0 6 5 10 10 10 6 0 10 -4 10 -10z
m250 -21 c0 -5 -7 -9 -15 -9 -15 0 -20 12 -9 23 8 8 24 -1 24 -14z m-1590 -3
c0 -11 -19 -15 -25 -6 -3 5 1 10 9 10 9 0 16 -2 16 -4z m980 -16 c0 -5 -7 -10
-15 -10 -18 0 -19 -12 -3 -28 9 -9 8 -12 -5 -12 -9 0 -17 -4 -17 -10 0 -5 -7
-10 -15 -10 -9 0 -15 9 -15 23 0 29 10 44 35 50 32 8 35 8 35 -3z m455 0 c3
-5 -1 -10 -10 -10 -9 0 -13 5 -10 10 3 6 8 10 10 10 2 0 7 -4 10 -10z m-1215
-31 c0 -5 -4 -9 -10 -9 -5 0 -10 7 -10 16 0 8 5 12 10 9 6 -3 10 -10 10 -16z
m30 11 c0 -5 -2 -10 -4 -10 -3 0 -8 5 -11 10 -3 6 -1 10 4 10 6 0 11 -4 11
-10z m-1920 -21 c0 -5 -7 -9 -15 -9 -15 0 -20 12 -9 23 8 8 24 -1 24 -14z
m2560 11 c0 -5 -4 -10 -10 -10 -5 0 -10 5 -10 10 0 6 5 10 10 10 6 0 10 -4 10
-10z m-2600 -30 c0 -5 -4 -10 -10 -10 -5 0 -10 5 -10 10 0 6 5 10 10 10 6 0
10 -4 10 -10z m3285 0 c3 -5 1 -10 -4 -10 -6 0 -11 5 -11 10 0 6 2 10 4 10 3
0 8 -4 11 -10z m-575 -15 c0 -8 -4 -15 -10 -15 -5 0 -10 7 -10 15 0 8 5 15 10
15 6 0 10 -7 10 -15z m720 -35 c0 -5 -5 -10 -11 -10 -5 0 -7 5 -4 10 3 6 8 10
11 10 2 0 4 -4 4 -10z m-3510 -10 c0 -5 -4 -10 -10 -10 -5 0 -10 5 -10 10 0 6
5 10 10 10 6 0 10 -4 10 -10z m2841 -19 c14 -13 17 -21 9 -26 -10 -6 -39 20
-40 38 0 12 10 8 31 -12z m-2911 -11 c0 -5 -4 -10 -10 -10 -5 0 -10 5 -10 10
0 6 5 10 10 10 6 0 10 -4 10 -10z m3760 -40 c0 -5 -4 -10 -10 -10 -5 0 -10 5
-10 10 0 6 5 10 10 10 6 0 10 -4 10 -10z m-3845 -10 c-3 -5 -11 -10 -16 -10
-6 0 -7 5 -4 10 3 6 11 10 16 10 6 0 7 -4 4 -10z m3055 -6 c0 -8 -4 -12 -10
-9 -5 3 -10 10 -10 16 0 5 5 9 10 9 6 0 10 -7 10 -16z m-2440 -33 c0 -6 -4
-13 -10 -16 -5 -3 -10 1 -10 9 0 9 5 16 10 16 6 0 10 -4 10 -9z m-720 -15 c0
-3 -4 -8 -10 -11 -5 -3 -10 -1 -10 4 0 6 5 11 10 11 6 0 10 -2 10 -4z m3230
-6 c0 -5 -4 -10 -10 -10 -5 0 -10 5 -10 10 0 6 5 10 10 10 6 0 10 -4 10 -10z
m-2535 -10 c3 -5 -1 -10 -9 -10 -9 0 -16 5 -16 10 0 6 4 10 9 10 6 0 13 -4 16
-10z m2585 -34 c0 -11 -19 -15 -25 -6 -3 5 1 10 9 10 9 0 16 -2 16 -4z m-2649
-29 c-13 -13 -26 -3 -16 12 3 6 11 8 17 5 6 -4 6 -10 -1 -17z m-801 -7 c0 -5
-4 -10 -10 -10 -5 0 -10 5 -10 10 0 6 5 10 10 10 6 0 10 -4 10 -10z m740 -36
c0 -8 -5 -12 -10 -9 -6 4 -8 11 -5 16 9 14 15 11 15 -7z m-40 -14 c0 -5 -4
-10 -10 -10 -5 0 -10 5 -10 10 0 6 5 10 10 10 6 0 10 -4 10 -10z m-30 -35 c0
-8 -4 -15 -10 -15 -5 0 -10 7 -10 15 0 8 5 15 10 15 6 0 10 -7 10 -15z m145
-205 c3 -5 1 -10 -4 -10 -6 0 -11 5 -11 10 0 6 2 10 4 10 3 0 8 -4 11 -10z
m-1465 -30 c0 -5 -4 -10 -10 -10 -5 0 -10 5 -10 10 0 6 5 10 10 10 6 0 10 -4
10 -10z m350 -10 c0 -5 -2 -10 -4 -10 -3 0 -8 5 -11 10 -3 6 -1 10 4 10 6 0
11 -4 11 -10z"/>
<path d="M2978 5353 c7 -3 16 -2 19 1 4 3 -2 6 -13 5 -11 0 -14 -3 -6 -6z"/>
<path d="M2831 4904 c0 -11 3 -14 6 -6 3 7 2 16 -1 19 -3 4 -6 -2 -5 -13z"/>
<path d="M2800 4840 c0 -11 4 -20 9 -20 5 0 7 9 4 20 -3 11 -7 20 -9 20 -2 0
-4 -9 -4 -20z"/>
<path d="M5185 4630 c-3 -5 -1 -10 4 -10 6 0 11 5 11 10 0 6 -2 10 -4 10 -3 0
-8 -4 -11 -10z"/>
<path d="M5100 4539 c0 -5 5 -7 10 -4 6 3 10 8 10 11 0 2 -4 4 -10 4 -5 0 -10
-5 -10 -11z"/>
<path d="M5135 4530 c-11 -5 -31 -6 -44 -3 -17 4 -22 3 -16 -6 4 -7 18 -11 32
-8 17 3 23 1 19 -8 -5 -15 31 -8 40 7 10 16 -9 26 -31 18z"/>
<path d="M5060 4500 c0 -5 5 -10 10 -10 6 0 10 5 10 10 0 6 -4 10 -10 10 -5 0
-10 -4 -10 -10z"/>
<path d="M5015 4470 c-3 -5 1 -10 9 -10 9 0 16 5 16 10 0 6 -4 10 -9 10 -6 0
-13 -4 -16 -10z"/>
<path d="M5062 4462 c-22 -17 -22 -18 -3 -34 18 -15 20 -15 35 1 19 21 21 51
4 51 -7 0 -23 -8 -36 -18z"/>
<path d="M3636 4453 c-6 -14 -5 -15 5 -6 7 7 10 15 7 18 -3 3 -9 -2 -12 -12z"/>
<path d="M3475 4420 c3 -5 8 -10 11 -10 2 0 4 5 4 10 0 6 -5 10 -11 10 -5 0
-7 -4 -4 -10z"/>
<path d="M3012 4338 c-6 -6 -12 -18 -12 -26 0 -10 3 -10 16 2 8 9 14 21 12 26
-2 7 -8 6 -16 -2z"/>
<path d="M3035 4311 c-3 -6 4 -15 15 -21 31 -17 42 -8 15 13 -14 9 -26 13 -30
8z"/>
<path d="M3002 4278 c-7 -7 -12 -23 -12 -36 0 -13 -4 -21 -8 -18 -5 3 -8 -3
-7 -12 1 -20 6 -22 43 -22 l27 0 -25 20 c-30 23 -21 34 26 33 22 -1 34 3 31
10 -2 7 -14 11 -25 9 -15 -2 -22 2 -22 12 0 19 -11 21 -28 4z"/>
<path d="M3086 4234 c-4 -9 -4 -19 -1 -22 3 -3 5 0 5 6 0 7 7 12 15 12 18 0
20 -17 3 -23 -7 -2 -10 -7 -7 -11 4 -4 14 0 23 9 14 14 14 18 2 31 -19 18 -32
18 -40 -2z"/>
<path d="M4067 3895 c9 -19 20 -35 23 -35 3 0 14 16 23 35 l17 35 -40 0 -40 0
17 -35z"/>
<path d="M5275 4520 c3 -5 14 -10 23 -10 15 0 15 2 2 10 -20 13 -33 13 -25 0z"/>
<path d="M5338 4473 c7 -3 16 -2 19 1 4 3 -2 6 -13 5 -11 0 -14 -3 -6 -6z"/>
</g>
</svg>
